<mxfile host="65bd71144e">
    <diagram id="O0t6biL_zLGsyqBsns5z" name="Page-1">
        <mxGraphModel dx="592" dy="470" grid="1" gridSize="10" guides="1" tooltips="1" connect="1" arrows="1" fold="1" page="1" pageScale="1" pageWidth="850" pageHeight="1100" background="#ffffff" math="0" shadow="0">
            <root>
                <mxCell id="0"/>
                <mxCell id="1" parent="0"/>
                <mxCell id="131" value="" style="group;fillColor=none;strokeColor=#000000;fontColor=#000000;" parent="1" vertex="1" connectable="0">
                    <mxGeometry x="310" y="780" width="330" height="180" as="geometry"/>
                </mxCell>
                <mxCell id="4" value="Admin" style="rounded=0;whiteSpace=wrap;html=1;fillColor=none;strokeColor=#000000;fontColor=#000000;" parent="131" vertex="1">
                    <mxGeometry x="230" y="50" width="100" height="30" as="geometry"/>
                </mxCell>
                <mxCell id="88" style="edgeStyle=none;html=1;exitX=1;exitY=0.5;exitDx=0;exitDy=0;entryX=0;entryY=0.5;entryDx=0;entryDy=0;endArrow=none;endFill=0;fillColor=none;strokeColor=#000000;fontColor=#000000;" parent="131" source="15" target="4" edge="1">
                    <mxGeometry relative="1" as="geometry"/>
                </mxCell>
                <mxCell id="15" value="&lt;u&gt;Admin ID&lt;/u&gt;" style="ellipse;whiteSpace=wrap;html=1;fillColor=none;strokeColor=#000000;fontColor=#000000;" parent="131" vertex="1">
                    <mxGeometry x="70" y="60" width="90" height="30" as="geometry"/>
                </mxCell>
                <mxCell id="92" style="edgeStyle=orthogonalEdgeStyle;html=1;exitX=1;exitY=0.5;exitDx=0;exitDy=0;entryX=0.75;entryY=1;entryDx=0;entryDy=0;endArrow=none;endFill=0;fillColor=none;strokeColor=#000000;fontColor=#000000;" parent="131" source="16" target="4" edge="1">
                    <mxGeometry relative="1" as="geometry"/>
                </mxCell>
                <mxCell id="16" value="Username" style="ellipse;whiteSpace=wrap;html=1;fillColor=none;strokeColor=#000000;fontColor=#000000;" parent="131" vertex="1">
                    <mxGeometry x="110" y="150" width="90" height="30" as="geometry"/>
                </mxCell>
                <mxCell id="87" style="edgeStyle=none;html=1;exitX=1;exitY=0.5;exitDx=0;exitDy=0;entryX=0;entryY=0;entryDx=0;entryDy=0;endArrow=none;endFill=0;fillColor=none;strokeColor=#000000;fontColor=#000000;" parent="131" source="17" target="4" edge="1">
                    <mxGeometry relative="1" as="geometry"/>
                </mxCell>
                <mxCell id="17" value="Email" style="ellipse;whiteSpace=wrap;html=1;fillColor=none;strokeColor=#000000;fontColor=#000000;" parent="131" vertex="1">
                    <mxGeometry x="90" width="90" height="30" as="geometry"/>
                </mxCell>
                <mxCell id="89" style="edgeStyle=none;html=1;exitX=1;exitY=0.5;exitDx=0;exitDy=0;entryX=0;entryY=1;entryDx=0;entryDy=0;endArrow=none;endFill=0;fillColor=none;strokeColor=#000000;fontColor=#000000;" parent="131" source="18" target="4" edge="1">
                    <mxGeometry relative="1" as="geometry"/>
                </mxCell>
                <mxCell id="18" value="Password" style="ellipse;whiteSpace=wrap;html=1;fillColor=none;strokeColor=#000000;fontColor=#000000;" parent="131" vertex="1">
                    <mxGeometry y="110" width="90" height="30" as="geometry"/>
                </mxCell>
                <mxCell id="132" value="" style="group;fillColor=none;strokeColor=#000000;fontColor=#000000;" parent="1" vertex="1" connectable="0">
                    <mxGeometry x="100" y="70" width="300" height="140" as="geometry"/>
                </mxCell>
                <mxCell id="5" value="Cart" style="rounded=0;whiteSpace=wrap;html=1;fillColor=none;strokeColor=#000000;fontColor=#000000;" parent="132" vertex="1">
                    <mxGeometry x="200" y="80" width="100" height="30" as="geometry"/>
                </mxCell>
                <mxCell id="61" value="&lt;u&gt;UserID&lt;/u&gt;" style="ellipse;whiteSpace=wrap;html=1;fillColor=none;strokeColor=#000000;fontColor=#000000;" parent="132" vertex="1">
                    <mxGeometry x="40" width="90" height="30" as="geometry"/>
                </mxCell>
                <mxCell id="97" style="edgeStyle=orthogonalEdgeStyle;html=1;exitX=1;exitY=0.5;exitDx=0;exitDy=0;entryX=0.5;entryY=0;entryDx=0;entryDy=0;endArrow=none;endFill=0;fillColor=none;strokeColor=#000000;fontColor=#000000;" parent="132" source="62" target="5" edge="1">
                    <mxGeometry relative="1" as="geometry"/>
                </mxCell>
                <mxCell id="62" value="Last&amp;nbsp; Modified" style="ellipse;whiteSpace=wrap;html=1;fillColor=none;strokeColor=#000000;fontColor=#000000;" parent="132" vertex="1">
                    <mxGeometry x="160" y="10" width="90" height="30" as="geometry"/>
                </mxCell>
                <mxCell id="93" style="edgeStyle=orthogonalEdgeStyle;html=1;exitX=1;exitY=0.5;exitDx=0;exitDy=0;endArrow=none;endFill=0;fillColor=none;strokeColor=#000000;fontColor=#000000;" parent="132" source="63" target="5" edge="1">
                    <mxGeometry relative="1" as="geometry"/>
                </mxCell>
                <mxCell id="63" value="items" style="ellipse;whiteSpace=wrap;html=1;fillColor=none;strokeColor=#000000;fontColor=#000000;" parent="132" vertex="1">
                    <mxGeometry x="60" y="110" width="90" height="30" as="geometry"/>
                </mxCell>
                <mxCell id="94" style="edgeStyle=orthogonalEdgeStyle;html=1;exitX=1;exitY=0.5;exitDx=0;exitDy=0;endArrow=none;endFill=0;fillColor=none;strokeColor=#000000;fontColor=#000000;" parent="132" source="64" edge="1">
                    <mxGeometry relative="1" as="geometry">
                        <mxPoint x="200" y="100" as="targetPoint"/>
                    </mxGeometry>
                </mxCell>
                <mxCell id="64" value="Price" style="ellipse;whiteSpace=wrap;html=1;fillColor=none;strokeColor=#000000;fontColor=#000000;" parent="132" vertex="1">
                    <mxGeometry y="50" width="90" height="30" as="geometry"/>
                </mxCell>
                <mxCell id="222" style="edgeStyle=orthogonalEdgeStyle;html=1;exitX=0.75;exitY=0;exitDx=0;exitDy=0;endArrow=none;endFill=0;fillColor=none;strokeColor=#000000;fontColor=#000000;" parent="132" source="5" target="5" edge="1">
                    <mxGeometry relative="1" as="geometry"/>
                </mxCell>
                <mxCell id="133" value="" style="group;fillColor=none;strokeColor=#000000;fontColor=#000000;" parent="1" vertex="1" connectable="0">
                    <mxGeometry x="450" width="270" height="120" as="geometry"/>
                </mxCell>
                <mxCell id="7" value="Order" style="rounded=0;whiteSpace=wrap;html=1;fillColor=none;strokeColor=#000000;fontColor=#000000;" parent="133" vertex="1">
                    <mxGeometry x="120" y="90" width="100" height="30" as="geometry"/>
                </mxCell>
                <mxCell id="98" style="edgeStyle=orthogonalEdgeStyle;html=1;exitX=1;exitY=1;exitDx=0;exitDy=0;endArrow=none;endFill=0;fillColor=none;strokeColor=#000000;fontColor=#000000;" parent="133" source="43" target="7" edge="1">
                    <mxGeometry relative="1" as="geometry"/>
                </mxCell>
                <mxCell id="43" value="&lt;u&gt;User ID&amp;nbsp;&lt;/u&gt;" style="ellipse;whiteSpace=wrap;html=1;fillColor=none;strokeColor=#000000;fontColor=#000000;" parent="133" vertex="1">
                    <mxGeometry y="60" width="90" height="30" as="geometry"/>
                </mxCell>
                <mxCell id="101" style="edgeStyle=orthogonalEdgeStyle;html=1;exitX=0.5;exitY=1;exitDx=0;exitDy=0;entryX=1;entryY=0.75;entryDx=0;entryDy=0;endArrow=none;endFill=0;fillColor=none;strokeColor=#000000;fontColor=#000000;" parent="133" source="44" target="7" edge="1">
                    <mxGeometry relative="1" as="geometry"/>
                </mxCell>
                <mxCell id="44" value="&lt;u&gt;OrderID&lt;/u&gt;" style="ellipse;whiteSpace=wrap;html=1;fillColor=none;strokeColor=#000000;fontColor=#000000;" parent="133" vertex="1">
                    <mxGeometry x="180" y="50" width="90" height="30" as="geometry"/>
                </mxCell>
                <mxCell id="100" style="edgeStyle=orthogonalEdgeStyle;html=1;exitX=0.5;exitY=1;exitDx=0;exitDy=0;entryX=0.25;entryY=0;entryDx=0;entryDy=0;endArrow=none;endFill=0;fillColor=none;strokeColor=#000000;fontColor=#000000;" parent="133" source="45" target="7" edge="1">
                    <mxGeometry relative="1" as="geometry"/>
                </mxCell>
                <mxCell id="45" value="Order Date" style="ellipse;whiteSpace=wrap;html=1;fillColor=none;strokeColor=#000000;fontColor=#000000;" parent="133" vertex="1">
                    <mxGeometry x="110" width="90" height="30" as="geometry"/>
                </mxCell>
                <mxCell id="99" style="edgeStyle=orthogonalEdgeStyle;html=1;exitX=1;exitY=0.5;exitDx=0;exitDy=0;entryX=0;entryY=0;entryDx=0;entryDy=0;endArrow=none;endFill=0;fillColor=none;strokeColor=#000000;fontColor=#000000;" parent="133" source="46" target="7" edge="1">
                    <mxGeometry relative="1" as="geometry"/>
                </mxCell>
                <mxCell id="46" value="Total amount" style="ellipse;whiteSpace=wrap;html=1;fillColor=none;strokeColor=#000000;fontColor=#000000;" parent="133" vertex="1">
                    <mxGeometry x="10" y="10" width="90" height="30" as="geometry"/>
                </mxCell>
                <mxCell id="134" value="" style="group;fillColor=none;strokeColor=#000000;fontColor=#000000;" parent="1" vertex="1" connectable="0">
                    <mxGeometry x="750" y="300" width="405" height="130" as="geometry"/>
                </mxCell>
                <mxCell id="13" value="User" style="rounded=0;whiteSpace=wrap;html=1;fillColor=none;strokeColor=#000000;fontColor=#000000;" parent="134" vertex="1">
                    <mxGeometry x="90" y="60" width="100" height="30" as="geometry"/>
                </mxCell>
                <mxCell id="102" style="edgeStyle=orthogonalEdgeStyle;html=1;exitX=0.5;exitY=1;exitDx=0;exitDy=0;entryX=0;entryY=0.25;entryDx=0;entryDy=0;endArrow=none;endFill=0;fillColor=none;strokeColor=#000000;fontColor=#000000;" parent="134" source="22" target="13" edge="1">
                    <mxGeometry relative="1" as="geometry"/>
                </mxCell>
                <mxCell id="22" value="UserID" style="ellipse;whiteSpace=wrap;html=1;fillColor=none;strokeColor=#000000;fontColor=#000000;" parent="134" vertex="1">
                    <mxGeometry width="90" height="30" as="geometry"/>
                </mxCell>
                <mxCell id="103" style="edgeStyle=orthogonalEdgeStyle;html=1;exitX=0.5;exitY=1;exitDx=0;exitDy=0;entryX=0.5;entryY=0;entryDx=0;entryDy=0;endArrow=none;endFill=0;fillColor=none;strokeColor=#000000;fontColor=#000000;" parent="134" source="23" target="13" edge="1">
                    <mxGeometry relative="1" as="geometry"/>
                </mxCell>
                <mxCell id="23" value="&lt;u&gt;Username&lt;/u&gt;" style="ellipse;whiteSpace=wrap;html=1;fillColor=none;strokeColor=#000000;fontColor=#000000;" parent="134" vertex="1">
                    <mxGeometry x="100" width="90" height="30" as="geometry"/>
                </mxCell>
                <mxCell id="104" style="edgeStyle=orthogonalEdgeStyle;html=1;exitX=0.5;exitY=1;exitDx=0;exitDy=0;entryX=0.889;entryY=0.055;entryDx=0;entryDy=0;entryPerimeter=0;endArrow=none;endFill=0;fillColor=none;strokeColor=#000000;fontColor=#000000;" parent="134" source="24" target="13" edge="1">
                    <mxGeometry relative="1" as="geometry"/>
                </mxCell>
                <mxCell id="24" value="&lt;u&gt;Email&lt;/u&gt;" style="ellipse;whiteSpace=wrap;html=1;fillColor=none;strokeColor=#000000;fontColor=#000000;" parent="134" vertex="1">
                    <mxGeometry x="205" width="90" height="30" as="geometry"/>
                </mxCell>
                <mxCell id="105" style="edgeStyle=orthogonalEdgeStyle;html=1;exitX=0;exitY=0.5;exitDx=0;exitDy=0;entryX=1;entryY=0.75;entryDx=0;entryDy=0;endArrow=none;endFill=0;fillColor=none;strokeColor=#000000;fontColor=#000000;" parent="134" source="25" target="13" edge="1">
                    <mxGeometry relative="1" as="geometry"/>
                </mxCell>
                <mxCell id="25" value="&lt;u&gt;Password&lt;/u&gt;" style="ellipse;whiteSpace=wrap;html=1;fillColor=none;strokeColor=#000000;fontColor=#000000;" parent="134" vertex="1">
                    <mxGeometry x="285" y="70" width="90" height="30" as="geometry"/>
                </mxCell>
                <mxCell id="106" style="edgeStyle=orthogonalEdgeStyle;html=1;exitX=0;exitY=0.5;exitDx=0;exitDy=0;entryX=0.75;entryY=0;entryDx=0;entryDy=0;endArrow=none;endFill=0;fillColor=none;strokeColor=#000000;fontColor=#000000;" parent="134" source="26" target="13" edge="1">
                    <mxGeometry relative="1" as="geometry"/>
                </mxCell>
                <mxCell id="26" value="&lt;u&gt;DateJoined&lt;/u&gt;" style="ellipse;whiteSpace=wrap;html=1;fillColor=none;strokeColor=#000000;fontColor=#000000;" parent="134" vertex="1">
                    <mxGeometry x="315" y="20" width="90" height="30" as="geometry"/>
                </mxCell>
                <mxCell id="107" style="edgeStyle=orthogonalEdgeStyle;html=1;exitX=0;exitY=0.5;exitDx=0;exitDy=0;entryX=0.899;entryY=1.08;entryDx=0;entryDy=0;entryPerimeter=0;endArrow=none;endFill=0;fillColor=none;strokeColor=#000000;fontColor=#000000;" parent="134" source="27" target="13" edge="1">
                    <mxGeometry relative="1" as="geometry"/>
                </mxCell>
                <mxCell id="27" value="&lt;u&gt;Last LogIn&lt;/u&gt;" style="ellipse;whiteSpace=wrap;html=1;fillColor=none;strokeColor=#000000;fontColor=#000000;" parent="134" vertex="1">
                    <mxGeometry x="205" y="100" width="90" height="30" as="geometry"/>
                </mxCell>
                <mxCell id="135" value="" style="group;fillColor=none;strokeColor=#000000;fontColor=#000000;" parent="1" vertex="1" connectable="0">
                    <mxGeometry x="910" y="10" width="205" height="100" as="geometry"/>
                </mxCell>
                <mxCell id="10" value="Recommendation" style="rounded=0;whiteSpace=wrap;html=1;fillColor=none;strokeColor=#000000;fontColor=#000000;" parent="135" vertex="1">
                    <mxGeometry y="40" width="100" height="30" as="geometry"/>
                </mxCell>
                <mxCell id="108" style="edgeStyle=orthogonalEdgeStyle;html=1;exitX=0;exitY=0.5;exitDx=0;exitDy=0;entryX=0.5;entryY=0;entryDx=0;entryDy=0;endArrow=none;endFill=0;fillColor=none;strokeColor=#000000;fontColor=#000000;" parent="135" source="39" target="10" edge="1">
                    <mxGeometry relative="1" as="geometry"/>
                </mxCell>
                <mxCell id="39" value="User ID&amp;nbsp;" style="ellipse;whiteSpace=wrap;html=1;fillColor=none;strokeColor=#000000;fontColor=#000000;" parent="135" vertex="1">
                    <mxGeometry x="85" width="90" height="30" as="geometry"/>
                </mxCell>
                <mxCell id="109" style="edgeStyle=orthogonalEdgeStyle;html=1;exitX=0.5;exitY=0;exitDx=0;exitDy=0;endArrow=none;endFill=0;fillColor=none;strokeColor=#000000;fontColor=#000000;" parent="135" source="42" edge="1">
                    <mxGeometry relative="1" as="geometry">
                        <mxPoint x="92.5" y="60" as="targetPoint"/>
                    </mxGeometry>
                </mxCell>
                <mxCell id="42" value="Recomendatin Products" style="ellipse;whiteSpace=wrap;html=1;fillColor=none;strokeColor=#000000;fontColor=#000000;" parent="135" vertex="1">
                    <mxGeometry x="115" y="70" width="90" height="30" as="geometry"/>
                </mxCell>
                <mxCell id="136" value="" style="group;fillColor=none;strokeColor=#000000;fontColor=#000000;" parent="1" vertex="1" connectable="0">
                    <mxGeometry x="1290" y="470" width="200" height="100" as="geometry"/>
                </mxCell>
                <mxCell id="6" value="ChatBot" style="rounded=0;whiteSpace=wrap;html=1;fillColor=none;strokeColor=#000000;fontColor=#000000;" parent="136" vertex="1">
                    <mxGeometry y="30" width="100" height="30" as="geometry"/>
                </mxCell>
                <mxCell id="111" style="edgeStyle=orthogonalEdgeStyle;html=1;exitX=0;exitY=0.5;exitDx=0;exitDy=0;entryX=0.622;entryY=-0.098;entryDx=0;entryDy=0;entryPerimeter=0;endArrow=none;endFill=0;fillColor=none;strokeColor=#000000;fontColor=#000000;" parent="136" source="31" target="6" edge="1">
                    <mxGeometry relative="1" as="geometry"/>
                </mxCell>
                <mxCell id="31" value="Chat History" style="ellipse;whiteSpace=wrap;html=1;fillColor=none;strokeColor=#000000;fontColor=#000000;" parent="136" vertex="1">
                    <mxGeometry x="90" width="90" height="30" as="geometry"/>
                </mxCell>
                <mxCell id="112" style="edgeStyle=orthogonalEdgeStyle;html=1;exitX=0;exitY=0.5;exitDx=0;exitDy=0;entryX=0.622;entryY=1.093;entryDx=0;entryDy=0;entryPerimeter=0;endArrow=none;endFill=0;fillColor=none;strokeColor=#000000;fontColor=#000000;" parent="136" source="32" target="6" edge="1">
                    <mxGeometry relative="1" as="geometry"/>
                </mxCell>
                <mxCell id="32" value="Status" style="ellipse;whiteSpace=wrap;html=1;fillColor=none;strokeColor=#000000;fontColor=#000000;" parent="136" vertex="1">
                    <mxGeometry x="110" y="70" width="90" height="30" as="geometry"/>
                </mxCell>
                <mxCell id="137" value="" style="group;fillColor=none;strokeColor=#000000;fontColor=#000000;" parent="1" vertex="1" connectable="0">
                    <mxGeometry x="807.5" y="700" width="240" height="150" as="geometry"/>
                </mxCell>
                <mxCell id="12" value="Review&amp;nbsp;" style="rounded=0;whiteSpace=wrap;html=1;fillColor=none;strokeColor=#000000;fontColor=#000000;" parent="137" vertex="1">
                    <mxGeometry y="40" width="100" height="30" as="geometry"/>
                </mxCell>
                <mxCell id="116" style="edgeStyle=orthogonalEdgeStyle;html=1;exitX=0;exitY=0;exitDx=0;exitDy=0;endArrow=none;endFill=0;fillColor=none;strokeColor=#000000;fontColor=#000000;" parent="137" source="34" edge="1">
                    <mxGeometry relative="1" as="geometry">
                        <mxPoint x="90" y="45" as="targetPoint"/>
                    </mxGeometry>
                </mxCell>
                <mxCell id="34" value="&lt;u&gt;Product ID&lt;/u&gt;" style="ellipse;whiteSpace=wrap;html=1;fillColor=none;strokeColor=#000000;fontColor=#000000;" parent="137" vertex="1">
                    <mxGeometry x="140" width="90" height="30" as="geometry"/>
                </mxCell>
                <mxCell id="117" style="edgeStyle=orthogonalEdgeStyle;html=1;exitX=0.5;exitY=0;exitDx=0;exitDy=0;entryX=0.25;entryY=1;entryDx=0;entryDy=0;endArrow=none;endFill=0;fillColor=none;strokeColor=#000000;fontColor=#000000;" parent="137" source="35" target="12" edge="1">
                    <mxGeometry relative="1" as="geometry"/>
                </mxCell>
                <mxCell id="35" value="&lt;u&gt;User ID&lt;/u&gt;" style="ellipse;whiteSpace=wrap;html=1;fillColor=none;strokeColor=#000000;fontColor=#000000;" parent="137" vertex="1">
                    <mxGeometry x="130" y="120" width="90" height="30" as="geometry"/>
                </mxCell>
                <mxCell id="115" style="edgeStyle=orthogonalEdgeStyle;html=1;exitX=0;exitY=0;exitDx=0;exitDy=0;entryX=1;entryY=0.5;entryDx=0;entryDy=0;endArrow=none;endFill=0;fillColor=none;strokeColor=#000000;fontColor=#000000;" parent="137" source="36" target="12" edge="1">
                    <mxGeometry relative="1" as="geometry"/>
                </mxCell>
                <mxCell id="36" value="Rating" style="ellipse;whiteSpace=wrap;html=1;fillColor=none;strokeColor=#000000;fontColor=#000000;" parent="137" vertex="1">
                    <mxGeometry x="150" y="40" width="90" height="30" as="geometry"/>
                </mxCell>
                <mxCell id="114" style="edgeStyle=orthogonalEdgeStyle;html=1;exitX=0.5;exitY=0;exitDx=0;exitDy=0;entryX=0.9;entryY=0.984;entryDx=0;entryDy=0;entryPerimeter=0;endArrow=none;endFill=0;fillColor=none;strokeColor=#000000;fontColor=#000000;" parent="137" source="37" target="12" edge="1">
                    <mxGeometry relative="1" as="geometry"/>
                </mxCell>
                <mxCell id="37" value="Comment" style="ellipse;whiteSpace=wrap;html=1;fillColor=none;strokeColor=#000000;fontColor=#000000;" parent="137" vertex="1">
                    <mxGeometry x="65" y="80" width="90" height="30" as="geometry"/>
                </mxCell>
                <mxCell id="113" style="edgeStyle=orthogonalEdgeStyle;html=1;exitX=0.5;exitY=0;exitDx=0;exitDy=0;entryX=0.5;entryY=1;entryDx=0;entryDy=0;endArrow=none;endFill=0;fillColor=none;strokeColor=#000000;fontColor=#000000;" parent="137" source="38" target="12" edge="1">
                    <mxGeometry relative="1" as="geometry"/>
                </mxCell>
                <mxCell id="38" value="Review Date" style="ellipse;whiteSpace=wrap;html=1;fillColor=none;strokeColor=#000000;fontColor=#000000;" parent="137" vertex="1">
                    <mxGeometry y="120" width="90" height="30" as="geometry"/>
                </mxCell>
                <mxCell id="140" value="" style="group;fillColor=none;strokeColor=#000000;fontColor=#000000;" parent="1" vertex="1" connectable="0">
                    <mxGeometry y="530" width="380" height="160" as="geometry"/>
                </mxCell>
                <mxCell id="56" value="Price" style="ellipse;whiteSpace=wrap;html=1;fillColor=none;strokeColor=#000000;fontColor=#000000;" parent="140" vertex="1">
                    <mxGeometry y="100" width="90" height="30" as="geometry"/>
                </mxCell>
                <mxCell id="139" value="" style="group;fillColor=none;strokeColor=#000000;fontColor=#000000;" parent="140" vertex="1" connectable="0">
                    <mxGeometry x="50" width="330" height="160" as="geometry"/>
                </mxCell>
                <mxCell id="9" value="Products" style="rounded=0;whiteSpace=wrap;html=1;fillColor=none;strokeColor=#000000;fontColor=#000000;" parent="139" vertex="1">
                    <mxGeometry x="60" width="100" height="30" as="geometry"/>
                </mxCell>
                <mxCell id="127" style="edgeStyle=orthogonalEdgeStyle;html=1;exitX=0.5;exitY=0;exitDx=0;exitDy=0;entryX=0.5;entryY=1;entryDx=0;entryDy=0;endArrow=none;endFill=0;fillColor=none;strokeColor=#000000;fontColor=#000000;" parent="139" source="53" target="9" edge="1">
                    <mxGeometry relative="1" as="geometry"/>
                </mxCell>
                <mxCell id="53" value="&lt;u&gt;Product ID&lt;/u&gt;" style="ellipse;whiteSpace=wrap;html=1;fillColor=none;strokeColor=#000000;fontColor=#000000;" parent="139" vertex="1">
                    <mxGeometry x="50" y="130" width="90" height="30" as="geometry"/>
                </mxCell>
                <mxCell id="128" style="edgeStyle=orthogonalEdgeStyle;html=1;exitX=0.5;exitY=0;exitDx=0;exitDy=0;endArrow=none;endFill=0;fillColor=none;strokeColor=#000000;fontColor=#000000;" parent="139" source="54" edge="1">
                    <mxGeometry relative="1" as="geometry">
                        <mxPoint x="149.99999999999977" y="35" as="targetPoint"/>
                    </mxGeometry>
                </mxCell>
                <mxCell id="54" value="Product name" style="ellipse;whiteSpace=wrap;html=1;fillColor=none;strokeColor=#000000;fontColor=#000000;" parent="139" vertex="1">
                    <mxGeometry x="200" y="60" width="90" height="30" as="geometry"/>
                </mxCell>
                <mxCell id="126" style="edgeStyle=orthogonalEdgeStyle;html=1;exitX=0.5;exitY=0;exitDx=0;exitDy=0;endArrow=none;endFill=0;fillColor=none;strokeColor=#000000;fontColor=#000000;" parent="139" source="55" edge="1">
                    <mxGeometry relative="1" as="geometry">
                        <mxPoint x="129.99999999999977" y="35" as="targetPoint"/>
                    </mxGeometry>
                </mxCell>
                <mxCell id="55" value="Description" style="ellipse;whiteSpace=wrap;html=1;fillColor=none;strokeColor=#000000;fontColor=#000000;" parent="139" vertex="1">
                    <mxGeometry x="100" y="70" width="90" height="30" as="geometry"/>
                </mxCell>
                <mxCell id="130" style="edgeStyle=orthogonalEdgeStyle;html=1;exitX=0.5;exitY=0;exitDx=0;exitDy=0;endArrow=none;endFill=0;fillColor=none;strokeColor=#000000;fontColor=#000000;" parent="139" source="57" edge="1">
                    <mxGeometry relative="1" as="geometry">
                        <mxPoint x="139.99999999999977" y="35" as="targetPoint"/>
                    </mxGeometry>
                </mxCell>
                <mxCell id="57" value="Quantity" style="ellipse;whiteSpace=wrap;html=1;fillColor=none;strokeColor=#000000;fontColor=#000000;" parent="139" vertex="1">
                    <mxGeometry x="160" y="130" width="90" height="30" as="geometry"/>
                </mxCell>
                <mxCell id="124" style="edgeStyle=orthogonalEdgeStyle;html=1;exitX=0.5;exitY=0;exitDx=0;exitDy=0;entryX=0.25;entryY=1;entryDx=0;entryDy=0;endArrow=none;endFill=0;fillColor=none;strokeColor=#000000;fontColor=#000000;" parent="139" source="58" target="9" edge="1">
                    <mxGeometry relative="1" as="geometry"/>
                </mxCell>
                <mxCell id="58" value="Catagory" style="ellipse;whiteSpace=wrap;html=1;fillColor=none;strokeColor=#000000;fontColor=#000000;" parent="139" vertex="1">
                    <mxGeometry y="60" width="90" height="30" as="geometry"/>
                </mxCell>
                <mxCell id="129" style="edgeStyle=orthogonalEdgeStyle;html=1;exitX=0.5;exitY=0;exitDx=0;exitDy=0;entryX=1;entryY=0.5;entryDx=0;entryDy=0;endArrow=none;endFill=0;fillColor=none;strokeColor=#000000;fontColor=#000000;" parent="139" source="59" target="9" edge="1">
                    <mxGeometry relative="1" as="geometry"/>
                </mxCell>
                <mxCell id="59" value="Brand" style="ellipse;whiteSpace=wrap;html=1;fillColor=none;strokeColor=#000000;fontColor=#000000;" parent="139" vertex="1">
                    <mxGeometry x="240" y="10" width="90" height="30" as="geometry"/>
                </mxCell>
                <mxCell id="125" style="edgeStyle=orthogonalEdgeStyle;html=1;exitX=0.5;exitY=0;exitDx=0;exitDy=0;entryX=0;entryY=0.5;entryDx=0;entryDy=0;endArrow=none;endFill=0;fillColor=none;strokeColor=#000000;fontColor=#000000;" parent="140" source="56" target="9" edge="1">
                    <mxGeometry relative="1" as="geometry"/>
                </mxCell>
                <mxCell id="141" value="" style="group;rotation=-90;fillColor=none;strokeColor=#000000;fontColor=#000000;" parent="1" vertex="1" connectable="0">
                    <mxGeometry x="1047.5" y="830" width="345" height="130" as="geometry"/>
                </mxCell>
                <mxCell id="50" value="Payment Method" style="ellipse;whiteSpace=wrap;html=1;rotation=-90;fillColor=none;strokeColor=#000000;fontColor=#000000;" parent="141" vertex="1">
                    <mxGeometry x="148" y="-77" width="90" height="30" as="geometry"/>
                </mxCell>
                <mxCell id="138" value="" style="group;rotation=-90;fillColor=none;strokeColor=#000000;fontColor=#000000;" parent="141" vertex="1" connectable="0">
                    <mxGeometry x="13" y="13" width="320" height="130" as="geometry"/>
                </mxCell>
                <mxCell id="8" value="Payment" style="rounded=0;whiteSpace=wrap;html=1;rotation=-90;fillColor=none;strokeColor=#000000;fontColor=#000000;" parent="138" vertex="1">
                    <mxGeometry x="60" y="55" width="100" height="30" as="geometry"/>
                </mxCell>
                <mxCell id="118" style="edgeStyle=orthogonalEdgeStyle;html=1;exitX=1;exitY=0;exitDx=0;exitDy=0;entryX=0;entryY=0.5;entryDx=0;entryDy=0;endArrow=none;endFill=0;fillColor=none;strokeColor=#000000;fontColor=#000000;" parent="138" source="47" target="8" edge="1">
                    <mxGeometry relative="1" as="geometry"/>
                </mxCell>
                <mxCell id="47" value="&lt;u&gt;payment ID&lt;/u&gt;" style="ellipse;whiteSpace=wrap;html=1;rotation=-90;fillColor=none;strokeColor=#000000;fontColor=#000000;" parent="138" vertex="1">
                    <mxGeometry x="95" y="165" width="90" height="30" as="geometry"/>
                </mxCell>
                <mxCell id="119" style="edgeStyle=orthogonalEdgeStyle;html=1;exitX=0.5;exitY=0;exitDx=0;exitDy=0;entryX=0.25;entryY=1;entryDx=0;entryDy=0;endArrow=none;endFill=0;fillColor=none;strokeColor=#000000;fontColor=#000000;" parent="138" source="48" target="8" edge="1">
                    <mxGeometry relative="1" as="geometry"/>
                </mxCell>
                <mxCell id="48" value="&lt;u&gt;Order ID&lt;/u&gt;" style="ellipse;whiteSpace=wrap;html=1;rotation=-90;fillColor=none;strokeColor=#000000;fontColor=#000000;" parent="138" vertex="1">
                    <mxGeometry x="145" y="115" width="90" height="30" as="geometry"/>
                </mxCell>
                <mxCell id="122" style="edgeStyle=orthogonalEdgeStyle;html=1;exitX=0.5;exitY=0;exitDx=0;exitDy=0;endArrow=none;endFill=0;fillColor=none;strokeColor=#000000;fontColor=#000000;" parent="138" source="50" edge="1">
                    <mxGeometry relative="1" as="geometry">
                        <mxPoint x="110" y="15" as="targetPoint"/>
                    </mxGeometry>
                </mxCell>
                <mxCell id="123" style="edgeStyle=orthogonalEdgeStyle;html=1;exitX=0.5;exitY=0;exitDx=0;exitDy=0;endArrow=none;endFill=0;fillColor=none;strokeColor=#000000;fontColor=#000000;" parent="138" source="51" edge="1">
                    <mxGeometry relative="1" as="geometry">
                        <mxPoint x="130" y="85" as="targetPoint"/>
                    </mxGeometry>
                </mxCell>
                <mxCell id="51" value="Transction satus" style="ellipse;whiteSpace=wrap;html=1;rotation=-90;fillColor=none;strokeColor=#000000;fontColor=#000000;" parent="138" vertex="1">
                    <mxGeometry x="165" y="-15" width="90" height="30" as="geometry"/>
                </mxCell>
                <mxCell id="52" value="Paymentdate" style="ellipse;whiteSpace=wrap;html=1;rotation=-90;fillColor=none;strokeColor=#000000;fontColor=#000000;" parent="138" vertex="1">
                    <mxGeometry x="65" y="-65" width="90" height="30" as="geometry"/>
                </mxCell>
                <mxCell id="187" style="edgeStyle=orthogonalEdgeStyle;html=1;exitX=0.5;exitY=1;exitDx=0;exitDy=0;entryX=1;entryY=0.5;entryDx=0;entryDy=0;endArrow=none;endFill=0;fillColor=none;strokeColor=#000000;fontColor=#000000;" parent="1" source="144" target="4" edge="1">
                    <mxGeometry relative="1" as="geometry"/>
                </mxCell>
                <mxCell id="188" style="edgeStyle=orthogonalEdgeStyle;html=1;exitX=0.5;exitY=0;exitDx=0;exitDy=0;entryX=0.5;entryY=0;entryDx=0;entryDy=0;endArrow=none;endFill=0;fillColor=none;strokeColor=#000000;fontColor=#000000;" parent="1" source="144" target="9" edge="1">
                    <mxGeometry relative="1" as="geometry"/>
                </mxCell>
                <mxCell id="144" value="Manages" style="shape=rhombus;perimeter=rhombusPerimeter;whiteSpace=wrap;html=1;align=center;fillColor=none;strokeColor=#000000;fontColor=#000000;" parent="1" vertex="1">
                    <mxGeometry x="460" y="490" width="120" height="60" as="geometry"/>
                </mxCell>
                <mxCell id="147" value="Submits" style="shape=rhombus;perimeter=rhombusPerimeter;whiteSpace=wrap;html=1;align=center;fillColor=none;strokeColor=#000000;fontColor=#000000;" parent="1" vertex="1">
                    <mxGeometry x="480" y="150" width="80" height="60" as="geometry"/>
                </mxCell>
                <mxCell id="148" style="edgeStyle=orthogonalEdgeStyle;html=1;exitX=1;exitY=0.25;exitDx=0;exitDy=0;entryX=0;entryY=0.5;entryDx=0;entryDy=0;endArrow=none;endFill=0;fillColor=none;strokeColor=#000000;fontColor=#000000;" parent="1" source="5" target="147" edge="1">
                    <mxGeometry relative="1" as="geometry"/>
                </mxCell>
                <mxCell id="149" style="edgeStyle=orthogonalEdgeStyle;html=1;exitX=0.5;exitY=1;exitDx=0;exitDy=0;entryX=1;entryY=0.5;entryDx=0;entryDy=0;endArrow=none;endFill=0;fillColor=none;strokeColor=#000000;fontColor=#000000;" parent="1" source="7" target="147" edge="1">
                    <mxGeometry relative="1" as="geometry"/>
                </mxCell>
                <mxCell id="177" style="edgeStyle=orthogonalEdgeStyle;html=1;exitX=0.5;exitY=0;exitDx=0;exitDy=0;entryX=0.75;entryY=1;entryDx=0;entryDy=0;endArrow=none;endFill=0;fillColor=none;strokeColor=#000000;fontColor=#000000;" parent="1" source="153" target="7" edge="1">
                    <mxGeometry relative="1" as="geometry"/>
                </mxCell>
                <mxCell id="225" style="edgeStyle=orthogonalEdgeStyle;html=1;exitX=0.5;exitY=1;exitDx=0;exitDy=0;entryX=0;entryY=0.5;entryDx=0;entryDy=0;endArrow=classic;endFill=1;fillColor=none;strokeColor=#000000;fontColor=#000000;" parent="1" source="153" target="13" edge="1">
                    <mxGeometry relative="1" as="geometry"/>
                </mxCell>
                <mxCell id="153" value="Places" style="shape=rhombus;perimeter=rhombusPerimeter;whiteSpace=wrap;html=1;align=center;fillColor=none;strokeColor=#000000;fontColor=#000000;" parent="1" vertex="1">
                    <mxGeometry x="660" y="220" width="80" height="60" as="geometry"/>
                </mxCell>
                <mxCell id="167" value="" style="edgeStyle=orthogonalEdgeStyle;html=1;exitX=0.5;exitY=1;exitDx=0;exitDy=0;entryX=0.25;entryY=1;entryDx=0;entryDy=0;endArrow=none;endFill=0;fillColor=none;strokeColor=#000000;fontColor=#000000;" parent="1" source="13" target="150" edge="1">
                    <mxGeometry relative="1" as="geometry">
                        <mxPoint x="890" y="390" as="sourcePoint"/>
                        <mxPoint x="1235" y="200" as="targetPoint"/>
                    </mxGeometry>
                </mxCell>
                <mxCell id="150" value="Provided to" style="shape=rhombus;perimeter=rhombusPerimeter;whiteSpace=wrap;html=1;align=center;fillColor=none;strokeColor=#000000;fontColor=#000000;" parent="1" vertex="1">
                    <mxGeometry x="1200" y="350" width="80" height="60" as="geometry"/>
                </mxCell>
                <mxCell id="168" style="edgeStyle=orthogonalEdgeStyle;html=1;exitX=0;exitY=1;exitDx=0;exitDy=0;endArrow=none;endFill=0;fillColor=none;strokeColor=#000000;fontColor=#000000;" parent="1" source="10" target="150" edge="1">
                    <mxGeometry relative="1" as="geometry"/>
                </mxCell>
                <mxCell id="174" style="edgeStyle=orthogonalEdgeStyle;html=1;exitX=0;exitY=1;exitDx=0;exitDy=0;endArrow=classic;endFill=1;startArrow=none;fillColor=none;strokeColor=#000000;fontColor=#000000;" parent="1" source="151" target="5" edge="1">
                    <mxGeometry relative="1" as="geometry">
                        <Array as="points">
                            <mxPoint x="350" y="400"/>
                        </Array>
                    </mxGeometry>
                </mxCell>
                <mxCell id="223" style="edgeStyle=orthogonalEdgeStyle;html=1;exitX=1;exitY=0.5;exitDx=0;exitDy=0;entryX=0;entryY=0.75;entryDx=0;entryDy=0;endArrow=classic;endFill=1;fillColor=none;strokeColor=#000000;fontColor=#000000;" parent="1" source="151" target="13" edge="1">
                    <mxGeometry relative="1" as="geometry"/>
                </mxCell>
                <mxCell id="151" value="Manages" style="shape=rhombus;perimeter=rhombusPerimeter;whiteSpace=wrap;html=1;align=center;fillColor=none;strokeColor=#000000;fontColor=#000000;" parent="1" vertex="1">
                    <mxGeometry x="580" y="370" width="80" height="60" as="geometry"/>
                </mxCell>
                <mxCell id="178" style="edgeStyle=orthogonalEdgeStyle;html=1;exitX=0.5;exitY=1;exitDx=0;exitDy=0;entryX=0.25;entryY=0;entryDx=0;entryDy=0;endArrow=none;endFill=0;startArrow=none;fillColor=none;strokeColor=#000000;fontColor=#000000;" parent="1" source="179" target="12" edge="1">
                    <mxGeometry relative="1" as="geometry"/>
                </mxCell>
                <mxCell id="224" style="edgeStyle=orthogonalEdgeStyle;html=1;exitX=0.5;exitY=0;exitDx=0;exitDy=0;endArrow=classic;endFill=1;fillColor=none;strokeColor=#000000;fontColor=#000000;" parent="1" source="179" edge="1">
                    <mxGeometry relative="1" as="geometry">
                        <mxPoint x="870" y="390" as="targetPoint"/>
                    </mxGeometry>
                </mxCell>
                <mxCell id="179" value="Writes" style="shape=rhombus;perimeter=rhombusPerimeter;whiteSpace=wrap;html=1;align=center;fillColor=none;strokeColor=#000000;fontColor=#000000;" parent="1" vertex="1">
                    <mxGeometry x="840" y="580" width="80" height="60" as="geometry"/>
                </mxCell>
                <mxCell id="184" style="edgeStyle=orthogonalEdgeStyle;html=1;exitX=1;exitY=0.5;exitDx=0;exitDy=0;entryX=0;entryY=0.5;entryDx=0;entryDy=0;endArrow=classic;endFill=1;fillColor=none;strokeColor=#000000;fontColor=#000000;" parent="1" source="181" target="6" edge="1">
                    <mxGeometry relative="1" as="geometry"/>
                </mxCell>
                <mxCell id="226" style="edgeStyle=orthogonalEdgeStyle;html=1;exitX=0;exitY=0.5;exitDx=0;exitDy=0;entryX=0.5;entryY=1;entryDx=0;entryDy=0;endArrow=classic;endFill=1;fillColor=none;strokeColor=#000000;fontColor=#000000;" parent="1" source="181" target="13" edge="1">
                    <mxGeometry relative="1" as="geometry"/>
                </mxCell>
                <mxCell id="181" value="Assists" style="shape=rhombus;perimeter=rhombusPerimeter;whiteSpace=wrap;html=1;align=center;fillColor=none;strokeColor=#000000;fontColor=#000000;" parent="1" vertex="1">
                    <mxGeometry x="1095" y="500" width="80" height="60" as="geometry"/>
                </mxCell>
                <mxCell id="189" style="edgeStyle=orthogonalEdgeStyle;html=1;exitX=0.5;exitY=0;exitDx=0;exitDy=0;entryX=0.25;entryY=1;entryDx=0;entryDy=0;endArrow=classic;endFill=1;startArrow=none;fillColor=none;strokeColor=#000000;fontColor=#000000;" parent="1" source="190" target="5" edge="1">
                    <mxGeometry relative="1" as="geometry"/>
                </mxCell>
                <mxCell id="191" value="" style="edgeStyle=orthogonalEdgeStyle;html=1;exitX=0.5;exitY=0;exitDx=0;exitDy=0;entryX=0.25;entryY=1;entryDx=0;entryDy=0;endArrow=none;endFill=0;fillColor=none;strokeColor=#000000;fontColor=#000000;" parent="1" source="9" target="190" edge="1">
                    <mxGeometry relative="1" as="geometry">
                        <mxPoint x="160" y="530" as="sourcePoint"/>
                        <mxPoint x="325.0000000000002" y="180" as="targetPoint"/>
                    </mxGeometry>
                </mxCell>
                <mxCell id="190" value="Contains" style="shape=rhombus;perimeter=rhombusPerimeter;whiteSpace=wrap;html=1;align=center;fillColor=none;strokeColor=#000000;fontColor=#000000;" parent="1" vertex="1">
                    <mxGeometry x="100" y="340" width="120" height="60" as="geometry"/>
                </mxCell>
                <mxCell id="195" style="edgeStyle=orthogonalEdgeStyle;html=1;exitX=0.5;exitY=0;exitDx=0;exitDy=0;entryX=0.25;entryY=1;entryDx=0;entryDy=0;endArrow=none;endFill=0;fillColor=none;strokeColor=#000000;fontColor=#000000;" parent="1" source="192" target="7" edge="1">
                    <mxGeometry relative="1" as="geometry"/>
                </mxCell>
                <mxCell id="192" value="Included In" style="shape=rhombus;perimeter=rhombusPerimeter;whiteSpace=wrap;html=1;align=center;fillColor=none;strokeColor=#000000;fontColor=#000000;" parent="1" vertex="1">
                    <mxGeometry x="240" y="340" width="120" height="60" as="geometry"/>
                </mxCell>
                <mxCell id="193" style="edgeStyle=orthogonalEdgeStyle;html=1;exitX=0.75;exitY=0;exitDx=0;exitDy=0;endArrow=none;endFill=0;fillColor=none;strokeColor=#000000;fontColor=#000000;" parent="1" source="9" edge="1">
                    <mxGeometry relative="1" as="geometry">
                        <mxPoint x="300" y="400" as="targetPoint"/>
                    </mxGeometry>
                </mxCell>
                <mxCell id="200" style="edgeStyle=orthogonalEdgeStyle;html=1;exitX=1;exitY=0.5;exitDx=0;exitDy=0;entryX=0.5;entryY=0;entryDx=0;entryDy=0;endArrow=none;endFill=0;fillColor=none;strokeColor=#000000;fontColor=#000000;" parent="1" source="198" target="8" edge="1">
                    <mxGeometry relative="1" as="geometry"/>
                </mxCell>
                <mxCell id="198" value="Monitors" style="shape=rhombus;perimeter=rhombusPerimeter;whiteSpace=wrap;html=1;align=center;fillColor=none;strokeColor=#000000;fontColor=#000000;" parent="1" vertex="1">
                    <mxGeometry x="860" y="950" width="80" height="60" as="geometry"/>
                </mxCell>
                <mxCell id="199" style="edgeStyle=orthogonalEdgeStyle;html=1;exitX=1;exitY=1;exitDx=0;exitDy=0;entryX=0;entryY=0.5;entryDx=0;entryDy=0;endArrow=none;endFill=0;fillColor=none;strokeColor=#000000;fontColor=#000000;" parent="1" source="4" target="198" edge="1">
                    <mxGeometry relative="1" as="geometry"/>
                </mxCell>
                <mxCell id="206" style="edgeStyle=orthogonalEdgeStyle;html=1;exitX=0.5;exitY=1;exitDx=0;exitDy=0;entryX=0.75;entryY=0;entryDx=0;entryDy=0;endArrow=none;endFill=0;fillColor=none;strokeColor=#000000;fontColor=#000000;" parent="1" source="204" target="8" edge="1">
                    <mxGeometry relative="1" as="geometry"/>
                </mxCell>
                <mxCell id="204" value="Initiates" style="shape=rhombus;perimeter=rhombusPerimeter;whiteSpace=wrap;html=1;align=center;fillColor=none;fontColor=#000000;strokeColor=#000000;" parent="1" vertex="1">
                    <mxGeometry x="1160" y="610" width="120" height="60" as="geometry"/>
                </mxCell>
                <mxCell id="205" style="edgeStyle=orthogonalEdgeStyle;html=1;exitX=1;exitY=1;exitDx=0;exitDy=0;entryX=0.5;entryY=0;entryDx=0;entryDy=0;endArrow=none;endFill=0;fillColor=none;strokeColor=#000000;fontColor=#000000;" parent="1" source="7" target="204" edge="1">
                    <mxGeometry relative="1" as="geometry"/>
                </mxCell>
                <mxCell id="208" value="Services" style="ellipse;whiteSpace=wrap;html=1;fillColor=none;strokeColor=#000000;fontColor=#000000;" parent="1" vertex="1">
                    <mxGeometry x="1360" y="410" width="97" height="40" as="geometry"/>
                </mxCell>
                <mxCell id="210" style="edgeStyle=orthogonalEdgeStyle;html=1;exitX=0.5;exitY=0;exitDx=0;exitDy=0;entryX=0;entryY=0.5;entryDx=0;entryDy=0;endArrow=none;endFill=0;fillColor=none;strokeColor=#000000;fontColor=#000000;" parent="1" source="6" target="208" edge="1">
                    <mxGeometry relative="1" as="geometry">
                        <Array as="points">
                            <mxPoint x="1340" y="430"/>
                        </Array>
                    </mxGeometry>
                </mxCell>
                <mxCell id="212" value="&lt;u&gt;User ID&lt;/u&gt;" style="ellipse;whiteSpace=wrap;html=1;fillColor=none;strokeColor=#000000;fontColor=#000000;" parent="1" vertex="1">
                    <mxGeometry x="1400" y="590" width="90" height="30" as="geometry"/>
                </mxCell>
                <mxCell id="213" style="edgeStyle=orthogonalEdgeStyle;html=1;exitX=0.5;exitY=1;exitDx=0;exitDy=0;entryX=0;entryY=0.5;entryDx=0;entryDy=0;endArrow=none;endFill=0;fillColor=none;strokeColor=#000000;fontColor=#000000;" parent="1" source="6" target="212" edge="1">
                    <mxGeometry relative="1" as="geometry"/>
                </mxCell>
                <mxCell id="215" style="edgeStyle=orthogonalEdgeStyle;html=1;exitX=0;exitY=0.5;exitDx=0;exitDy=0;entryX=0.75;entryY=1;entryDx=0;entryDy=0;endArrow=none;endFill=0;fillColor=none;strokeColor=#000000;fontColor=#000000;" parent="1" source="159" target="13" edge="1">
                    <mxGeometry relative="1" as="geometry"/>
                </mxCell>
                <mxCell id="159" value="SessionManagement" style="ellipse;whiteSpace=wrap;html=1;fillColor=none;strokeColor=#000000;fontColor=#000000;" parent="1" vertex="1">
                    <mxGeometry x="960" y="450" width="130" height="40" as="geometry"/>
                </mxCell>
                <mxCell id="49" value="Amount" style="ellipse;whiteSpace=wrap;html=1;rotation=-90;fillColor=none;strokeColor=#000000;fontColor=#000000;" parent="1" vertex="1">
                    <mxGeometry x="1248" y="930" width="90" height="30" as="geometry"/>
                </mxCell>
                <mxCell id="120" style="edgeStyle=orthogonalEdgeStyle;html=1;exitX=0.5;exitY=0;exitDx=0;exitDy=0;entryX=0.75;entryY=1;entryDx=0;entryDy=0;endArrow=none;endFill=0;fillColor=none;strokeColor=#000000;fontColor=#000000;" parent="1" source="49" target="8" edge="1">
                    <mxGeometry relative="1" as="geometry"/>
                </mxCell>
                <mxCell id="221" style="edgeStyle=orthogonalEdgeStyle;html=1;exitX=0;exitY=0.5;exitDx=0;exitDy=0;endArrow=none;endFill=0;fillColor=none;strokeColor=#000000;fontColor=#000000;" parent="1" source="220" target="10" edge="1">
                    <mxGeometry relative="1" as="geometry"/>
                </mxCell>
                <mxCell id="220" value="User Feedback" style="ellipse;whiteSpace=wrap;html=1;fillColor=none;strokeColor=#000000;fontColor=#000000;" parent="1" vertex="1">
                    <mxGeometry x="965" y="120" width="95" height="40" as="geometry"/>
                </mxCell>
            </root>
        </mxGraphModel>
    </diagram>
</mxfile>